<svg width="1200" height="320" viewBox="0 0 1200 320" fill="none" xmlns="http://www.w3.org/2000/svg">
  <defs>
    <linearGradient id="bg" x1="0" y1="0" x2="1200" y2="320" gradientUnits="userSpaceOnUse">
      <stop offset="0" stop-color="#020617"/>
      <stop offset="0.45" stop-color="#0f172a"/>
      <stop offset="1" stop-color="#111827"/>
    </linearGradient>

    <radialGradient id="glowA" cx="0" cy="0" r="1" gradientUnits="userSpaceOnUse" gradientTransform="translate(260 80) rotate(45) scale(340 220)">
      <stop stop-color="#38bdf8" stop-opacity="0.38"/>
      <stop offset="1" stop-color="#38bdf8" stop-opacity="0"/>
    </radialGradient>

    <radialGradient id="glowB" cx="0" cy="0" r="1" gradientUnits="userSpaceOnUse" gradientTransform="translate(1000 250) rotate(20) scale(360 240)">
      <stop stop-color="#8b5cf6" stop-opacity="0.30"/>
      <stop offset="1" stop-color="#8b5cf6" stop-opacity="0"/>
    </radialGradient>

    <filter id="softShadow" x="-20%" y="-20%" width="140%" height="140%">
      <feDropShadow dx="0" dy="18" stdDeviation="18" flood-color="#000000" flood-opacity="0.35"/>
    </filter>
  </defs>

  <rect width="1200" height="320" rx="28" fill="url(#bg)"/>
  <rect width="1200" height="320" rx="28" fill="url(#glowA)"/>
  <rect width="1200" height="320" rx="28" fill="url(#glowB)"/>

  <g opacity="0.18">
    <path d="M80 250H1120" stroke="#94a3b8"/>
    <path d="M80 210H1120" stroke="#94a3b8"/>
    <path d="M80 170H1120" stroke="#94a3b8"/>
    <path d="M80 130H1120" stroke="#94a3b8"/>
    <path d="M80 90H1120" stroke="#94a3b8"/>

    <path d="M160 60V260" stroke="#94a3b8"/>
    <path d="M300 60V260" stroke="#94a3b8"/>
    <path d="M440 60V260" stroke="#94a3b8"/>
    <path d="M580 60V260" stroke="#94a3b8"/>
    <path d="M720 60V260" stroke="#94a3b8"/>
    <path d="M860 60V260" stroke="#94a3b8"/>
    <path d="M1000 60V260" stroke="#94a3b8"/>
  </g>

  <g filter="url(#softShadow)">
    <rect x="78" y="58" width="1044" height="204" rx="22" fill="#020617" fill-opacity="0.62" stroke="#334155"/>
  </g>

  <text x="110" y="118" fill="#38bdf8" font-family="ui-monospace, SFMono-Regular, Menlo, Monaco, Consolas, monospace" font-size="18" letter-spacing="2">
    LOCALZET / SYSTEMS / INFRASTRUCTURE / OPEN SOURCE
  </text>

  <text x="110" y="178" fill="#f8fafc" font-family="Nunito, Montserrat, Inter, ui-sans-serif, system-ui, -apple-system, BlinkMacSystemFont, Segoe UI, sans-serif" font-size="52" font-weight="800">
    Ivan Zorin
  </text>

  <text x="110" y="220" fill="#cbd5e1" font-family="Nunito, Montserrat, Inter, ui-sans-serif, system-ui, -apple-system, BlinkMacSystemFont, Segoe UI, sans-serif" font-size="24">
    Backend platforms • Networking • Control planes • Developer tooling
  </text>

</svg>
